<svg id="svg" version="1.1" xmlns="http://www.w3.org/2000/svg" xmlns:xlink="http://www.w3.org/1999/xlink" width="400" height="129.9638989169675" viewBox="0, 0, 400,129.9638989169675"><g id="svgg"><path id="path0" d="M53.842 36.855 C 53.067 36.938,52.279 37.107,52.089 37.231 C 51.900 37.355,51.500 37.510,51.201 37.576 C 50.592 37.710,49.298 38.347,48.167 39.070 C 46.766 39.965,43.500 43.522,43.500 44.153 C 43.500 44.227,43.355 44.473,43.177 44.699 C 42.999 44.925,42.801 45.329,42.737 45.596 C 42.673 45.864,42.506 46.308,42.366 46.583 C 41.377 48.530,41.407 54.205,42.419 56.591 C 43.534 59.220,44.216 60.242,46.074 62.062 C 47.906 63.857,48.067 64.000,48.273 64.000 C 48.362 64.000,48.689 64.188,49.000 64.417 C 49.311 64.646,49.666 64.833,49.789 64.833 C 49.913 64.833,50.217 64.976,50.465 65.151 C 50.713 65.326,51.214 65.520,51.578 65.582 C 51.941 65.644,52.466 65.813,52.744 65.957 C 53.804 66.507,122.842 66.346,123.453 65.793 C 123.630 65.633,124.144 65.452,124.596 65.392 C 125.047 65.332,125.596 65.144,125.814 64.975 C 126.033 64.805,126.377 64.667,126.580 64.667 C 126.783 64.667,127.084 64.517,127.250 64.333 C 127.416 64.150,127.641 64.000,127.749 64.000 C 127.858 64.000,128.128 63.846,128.349 63.659 C 129.093 63.026,130.045 62.333,130.170 62.333 C 130.239 62.333,130.334 62.183,130.382 62.000 C 130.430 61.817,130.570 61.666,130.693 61.666 C 130.898 61.665,131.223 61.239,131.806 60.206 C 131.928 59.989,132.135 59.771,132.264 59.721 C 132.394 59.672,132.500 59.519,132.500 59.381 C 132.500 59.244,132.688 58.909,132.917 58.636 C 133.146 58.364,133.333 58.008,133.333 57.846 C 133.333 57.684,133.483 57.416,133.667 57.250 C 133.899 57.039,134.000 56.737,134.000 56.247 C 134.000 55.797,134.120 55.393,134.333 55.121 C 134.641 54.730,134.667 54.445,134.667 51.389 C 134.667 48.261,134.648 48.069,134.333 47.872 C 134.067 47.705,134.000 47.483,134.000 46.760 C 134.000 46.022,133.943 45.838,133.687 45.757 C 133.479 45.690,133.339 45.436,133.269 44.995 C 133.203 44.584,133.073 44.333,132.926 44.333 C 132.796 44.333,132.636 44.165,132.572 43.958 C 132.507 43.752,132.314 43.404,132.144 43.186 C 131.973 42.967,131.833 42.648,131.833 42.478 C 131.833 42.304,131.716 42.167,131.568 42.167 C 131.422 42.167,131.265 42.026,131.220 41.854 C 131.175 41.681,130.957 41.458,130.736 41.357 C 130.514 41.256,130.333 41.060,130.333 40.920 C 130.333 40.781,130.214 40.667,130.068 40.667 C 129.922 40.667,129.763 40.517,129.715 40.333 C 129.667 40.150,129.496 40.000,129.334 40.000 C 129.173 40.000,128.938 39.876,128.812 39.724 C 128.686 39.572,128.340 39.346,128.042 39.222 C 127.744 39.097,127.500 38.884,127.500 38.748 C 127.500 38.597,127.342 38.500,127.097 38.500 C 126.536 38.500,126.167 38.336,126.167 38.087 C 126.167 37.955,125.852 37.845,125.332 37.796 C 124.840 37.748,124.353 37.585,124.148 37.399 C 123.813 37.097,123.239 37.079,110.441 36.977 C 84.157 36.769,55.239 36.706,53.842 36.855 M185.253 37.491 C 185.167 37.762,184.971 37.826,184.116 37.867 C 183.190 37.912,183.078 37.955,183.030 38.292 C 182.986 38.600,182.872 38.667,182.389 38.667 C 181.942 38.667,181.781 38.746,181.715 39.000 C 181.645 39.269,181.488 39.333,180.897 39.333 C 180.278 39.333,180.167 39.384,180.167 39.667 C 180.167 39.889,180.056 40.000,179.833 40.000 C 179.589 40.000,179.500 40.111,179.500 40.417 C 179.500 40.750,179.417 40.833,179.083 40.833 C 178.778 40.833,178.667 40.922,178.667 41.167 C 178.667 41.389,178.556 41.500,178.333 41.500 C 178.111 41.500,178.000 41.611,178.000 41.833 C 178.000 42.056,177.889 42.167,177.667 42.167 C 177.425 42.167,177.333 42.278,177.333 42.572 C 177.333 42.865,177.230 42.992,176.958 43.030 C 176.657 43.073,176.573 43.206,176.532 43.708 C 176.491 44.198,176.410 44.333,176.157 44.333 C 175.885 44.333,175.833 44.452,175.833 45.083 C 175.833 45.722,175.784 45.833,175.500 45.833 C 175.201 45.833,175.167 45.944,175.167 46.917 C 175.167 47.868,175.128 48.000,174.851 48.000 C 174.376 48.000,174.333 48.284,174.336 51.389 C 174.338 54.556,174.392 54.943,174.851 55.089 C 175.118 55.174,175.167 55.356,175.167 56.261 C 175.167 57.222,175.201 57.333,175.500 57.333 C 175.779 57.333,175.833 57.444,175.833 58.016 C 175.833 58.544,175.904 58.716,176.148 58.780 C 176.362 58.836,176.495 59.070,176.566 59.514 C 176.647 60.019,176.745 60.167,177.002 60.167 C 177.227 60.167,177.333 60.278,177.333 60.516 C 177.333 60.724,177.467 60.900,177.667 60.952 C 177.851 61.000,178.000 61.179,178.000 61.353 C 178.000 61.556,178.118 61.667,178.333 61.667 C 178.556 61.667,178.667 61.778,178.667 62.000 C 178.667 62.244,178.778 62.333,179.083 62.333 C 179.391 62.333,179.500 62.422,179.500 62.672 C 179.500 62.858,179.626 63.059,179.779 63.117 C 179.932 63.176,180.195 63.362,180.362 63.529 C 180.530 63.696,180.892 63.833,181.167 63.833 C 181.556 63.833,181.667 63.907,181.667 64.167 C 181.667 64.444,181.778 64.500,182.333 64.500 C 182.700 64.500,183.001 64.556,183.003 64.625 C 183.011 65.048,183.386 65.202,184.602 65.283 C 185.480 65.342,186.020 65.462,186.226 65.644 C 186.706 66.066,254.500 66.064,254.500 65.642 C 254.500 65.352,254.813 65.304,256.634 65.312 C 257.367 65.316,257.513 65.268,257.490 65.033 C 257.439 64.524,257.496 64.456,257.777 64.688 C 257.993 64.866,258.070 64.871,258.124 64.708 C 258.163 64.594,258.405 64.500,258.661 64.500 C 258.974 64.500,259.217 64.364,259.398 64.089 C 259.551 63.855,259.768 63.716,259.900 63.767 C 260.028 63.816,260.187 63.768,260.254 63.660 C 260.344 63.515,260.411 63.522,260.514 63.689 C 260.622 63.864,260.697 63.869,260.853 63.714 C 261.005 63.561,261.007 63.459,260.858 63.280 C 260.699 63.088,260.739 63.054,261.081 63.091 C 261.311 63.117,261.548 63.057,261.608 62.959 C 261.673 62.855,261.639 62.831,261.526 62.901 C 261.420 62.966,261.333 62.955,261.333 62.877 C 261.333 62.612,261.730 62.333,262.105 62.333 C 262.364 62.333,262.493 62.219,262.530 61.958 C 262.559 61.752,262.677 61.574,262.792 61.563 C 263.190 61.523,263.206 61.499,263.000 61.250 C 262.781 60.986,262.854 60.945,263.458 60.993 C 263.783 61.020,263.833 60.944,263.833 60.429 C 263.833 59.861,263.988 59.726,264.542 59.814 C 264.610 59.824,264.667 59.750,264.667 59.649 C 264.667 59.546,264.538 59.509,264.375 59.566 C 264.121 59.654,264.123 59.636,264.396 59.425 C 264.582 59.281,264.667 59.075,264.606 58.916 C 264.547 58.761,264.573 58.692,264.669 58.751 C 264.759 58.807,264.833 58.776,264.833 58.682 C 264.833 58.588,264.937 58.550,265.064 58.599 C 265.233 58.664,265.283 58.555,265.252 58.187 C 265.225 57.874,265.299 57.652,265.448 57.594 C 265.580 57.544,265.642 57.428,265.585 57.336 C 265.526 57.241,265.592 57.212,265.741 57.270 C 265.952 57.351,266.000 57.225,266.000 56.586 C 266.000 55.986,266.084 55.736,266.358 55.513 C 266.698 55.238,266.956 54.071,266.633 54.271 C 266.552 54.321,266.526 54.524,266.575 54.722 C 266.624 54.921,266.621 54.990,266.568 54.875 C 266.414 54.540,266.134 54.636,266.246 54.986 C 266.301 55.162,266.284 55.344,266.208 55.391 C 266.132 55.438,266.052 55.257,266.032 54.988 C 266.011 54.720,266.075 54.500,266.174 54.500 C 266.272 54.500,266.307 54.425,266.250 54.333 C 266.193 54.242,266.234 54.167,266.341 54.167 C 266.448 54.167,266.495 54.060,266.445 53.930 C 266.395 53.801,266.462 53.653,266.594 53.602 C 266.839 53.508,266.935 52.491,266.720 52.275 C 266.657 52.213,266.625 51.844,266.649 51.456 C 266.780 49.281,266.772 48.833,266.599 48.831 C 266.481 48.829,266.476 48.785,266.583 48.706 C 266.675 48.638,266.772 48.433,266.799 48.250 C 266.837 47.989,266.813 47.968,266.687 48.155 C 266.497 48.438,266.000 48.543,266.000 48.301 C 266.000 48.207,266.129 48.180,266.287 48.241 C 266.444 48.301,266.520 48.298,266.455 48.232 C 266.390 48.167,266.417 48.017,266.516 47.898 C 266.734 47.635,266.549 47.279,266.254 47.392 C 266.109 47.448,266.009 47.232,265.938 46.713 C 265.880 46.295,265.716 45.868,265.573 45.763 C 265.430 45.659,265.306 45.329,265.298 45.031 C 265.289 44.732,265.207 44.442,265.115 44.385 C 265.022 44.327,265.000 44.365,265.066 44.472 C 265.141 44.594,265.094 44.628,264.937 44.568 C 264.801 44.516,264.700 44.333,264.713 44.162 C 264.731 43.927,264.789 43.894,264.951 44.029 C 265.091 44.145,265.167 44.148,265.167 44.038 C 265.167 43.820,264.686 43.635,264.468 43.770 C 264.359 43.837,264.361 43.759,264.473 43.550 C 264.621 43.274,264.593 43.227,264.287 43.238 C 264.055 43.246,263.903 43.132,263.860 42.917 C 263.823 42.734,263.610 42.415,263.387 42.208 C 263.157 41.995,263.033 41.748,263.101 41.638 C 263.182 41.508,263.130 41.478,262.946 41.549 C 262.795 41.607,262.682 41.601,262.695 41.536 C 262.760 41.219,262.424 40.833,262.084 40.833 C 261.814 40.833,261.672 40.709,261.595 40.405 C 261.536 40.169,261.397 40.006,261.287 40.043 C 261.053 40.121,260.667 39.779,260.667 39.494 C 260.667 39.386,260.560 39.338,260.430 39.388 C 260.300 39.438,259.982 39.296,259.722 39.073 C 259.462 38.850,259.127 38.667,258.976 38.667 C 258.826 38.667,258.659 38.554,258.606 38.417 C 258.554 38.279,258.396 38.167,258.255 38.167 C 258.115 38.167,258.000 38.102,258.000 38.022 C 258.000 37.942,257.569 37.864,257.042 37.848 C 256.515 37.832,255.971 37.812,255.833 37.803 C 255.491 37.782,255.151 37.494,255.260 37.317 C 255.310 37.236,240.116 37.171,220.353 37.168 C 185.725 37.164,185.356 37.167,185.253 37.491 M122.599 40.192 C 122.673 40.312,122.645 40.340,122.526 40.266 C 122.420 40.201,122.333 40.222,122.333 40.314 C 122.333 40.585,122.546 40.645,123.642 40.684 C 124.387 40.711,124.659 40.780,124.602 40.928 C 124.559 41.041,124.687 41.187,124.887 41.253 C 125.086 41.318,125.306 41.391,125.375 41.415 C 125.444 41.439,125.643 41.468,125.818 41.479 C 126.060 41.495,126.114 41.589,126.043 41.875 C 125.992 42.081,126.009 42.196,126.081 42.131 C 126.269 41.958,126.833 42.302,126.833 42.589 C 126.833 42.723,126.950 42.833,127.093 42.833 C 127.236 42.833,127.307 42.758,127.250 42.667 C 127.193 42.575,127.193 42.500,127.249 42.500 C 127.305 42.500,127.429 42.725,127.525 43.000 C 127.636 43.319,127.814 43.500,128.016 43.500 C 128.222 43.500,128.333 43.617,128.333 43.833 C 128.333 44.017,128.413 44.167,128.510 44.167 C 128.607 44.167,128.640 44.092,128.583 44.000 C 128.527 43.908,128.560 43.833,128.657 43.833 C 128.754 43.833,128.843 43.908,128.854 44.000 C 128.866 44.092,128.894 44.242,128.917 44.333 C 128.940 44.425,128.968 44.612,128.979 44.750 C 128.991 44.887,129.117 45.000,129.260 45.000 C 129.419 45.000,129.474 44.920,129.402 44.792 C 129.311 44.631,129.333 44.628,129.496 44.779 C 129.613 44.887,129.708 45.168,129.708 45.404 C 129.708 45.713,129.796 45.833,130.021 45.833 C 130.319 45.833,130.440 46.267,130.341 46.981 C 130.321 47.120,130.404 47.175,130.551 47.119 C 130.962 46.961,131.109 47.301,131.050 48.273 C 130.998 49.140,131.019 49.201,131.330 49.119 C 131.814 48.993,131.845 49.117,131.863 51.254 C 131.878 53.087,131.858 53.207,131.466 53.634 C 131.137 53.992,131.056 54.249,131.069 54.897 C 131.083 55.588,131.028 55.737,130.709 55.882 C 130.450 56.000,130.333 56.198,130.333 56.517 C 130.333 56.772,130.202 57.079,130.042 57.199 C 129.881 57.319,129.726 57.529,129.696 57.667 C 129.666 57.804,129.572 57.942,129.486 57.973 C 129.401 58.003,129.375 58.099,129.428 58.185 C 129.481 58.271,129.463 58.331,129.387 58.318 C 128.975 58.246,128.818 58.357,128.912 58.653 C 128.968 58.828,128.924 59.027,128.814 59.095 C 128.689 59.173,128.659 59.147,128.734 59.026 C 128.804 58.913,128.750 58.833,128.603 58.833 C 128.292 58.833,128.105 59.109,128.323 59.244 C 128.412 59.299,128.441 59.460,128.386 59.603 C 128.312 59.796,128.255 59.810,128.160 59.656 C 127.966 59.343,127.448 59.615,127.543 59.981 C 127.606 60.219,127.552 60.272,127.312 60.209 C 127.110 60.157,127.000 60.215,127.000 60.377 C 127.000 60.712,126.673 60.962,126.097 61.067 C 125.835 61.114,125.475 61.309,125.297 61.500 C 125.088 61.725,124.861 61.812,124.654 61.746 C 124.474 61.689,124.333 61.722,124.333 61.822 C 124.333 61.920,124.427 62.001,124.542 62.003 C 124.689 62.004,124.681 62.049,124.515 62.154 C 124.386 62.236,124.167 62.259,124.029 62.206 C 123.892 62.153,123.823 62.181,123.876 62.268 C 123.934 62.362,123.593 62.417,123.039 62.403 C 121.909 62.374,121.299 62.519,121.192 62.842 C 121.125 63.047,121.161 63.045,121.431 62.833 C 121.726 62.603,121.733 62.606,121.523 62.873 C 121.213 63.268,55.950 63.336,55.717 62.942 C 55.485 62.548,54.918 62.352,54.033 62.359 C 53.409 62.363,53.056 62.271,52.732 62.016 C 52.482 61.819,52.045 61.667,51.729 61.667 C 51.350 61.667,51.102 61.559,50.961 61.333 C 50.847 61.150,50.621 61.000,50.460 61.000 C 50.279 61.000,50.167 60.874,50.167 60.670 C 50.167 60.457,50.019 60.303,49.750 60.235 C 49.521 60.178,49.333 60.019,49.333 59.883 C 49.333 59.747,49.183 59.596,49.000 59.548 C 48.817 59.500,48.667 59.362,48.667 59.242 C 48.667 59.121,48.517 58.975,48.333 58.917 C 48.150 58.858,48.000 58.666,48.000 58.489 C 48.000 58.282,47.885 58.167,47.678 58.167 C 47.471 58.167,47.337 58.033,47.303 57.792 C 47.269 57.551,47.116 57.398,46.875 57.363 C 46.560 57.319,46.500 57.207,46.500 56.666 C 46.500 56.169,46.424 55.998,46.167 55.917 C 45.886 55.828,45.833 55.664,45.833 54.890 C 45.833 54.109,45.783 53.956,45.500 53.882 C 45.035 53.760,44.983 49.588,45.443 49.252 C 45.622 49.120,45.746 48.722,45.797 48.108 C 45.861 47.326,45.928 47.167,46.187 47.167 C 46.440 47.167,46.500 47.041,46.500 46.512 C 46.500 45.960,46.559 45.848,46.873 45.803 C 47.079 45.774,47.273 45.612,47.305 45.443 C 47.337 45.274,47.507 44.993,47.682 44.818 C 47.857 44.643,48.000 44.313,48.000 44.083 C 48.000 43.778,48.089 43.667,48.333 43.667 C 48.578 43.667,48.667 43.556,48.667 43.250 C 48.667 42.876,48.734 42.833,49.322 42.833 C 49.831 42.833,50.001 42.759,50.083 42.500 C 50.142 42.317,50.334 42.167,50.511 42.167 C 50.722 42.167,50.833 42.052,50.833 41.833 C 50.833 41.555,50.944 41.500,51.505 41.500 C 51.993 41.500,52.207 41.420,52.285 41.208 C 52.449 40.763,52.674 40.672,53.625 40.669 C 54.388 40.667,54.500 40.624,54.500 40.333 C 54.500 39.931,122.351 39.790,122.599 40.192 " stroke="none" fill="#04ddf0" fill-rule="evenodd"></path><path id="path1" d="M43.881 12.770 C 44.177 13.066,43.447 13.333,42.345 13.333 C 41.627 13.333,41.167 13.402,41.167 13.510 C 41.167 13.607,41.079 13.632,40.972 13.566 C 40.841 13.485,40.812 13.536,40.883 13.723 C 40.968 13.945,40.882 14.003,40.453 14.013 C 40.158 14.020,39.767 14.058,39.583 14.099 C 39.400 14.139,39.119 14.187,38.959 14.205 C 38.799 14.223,38.687 14.353,38.709 14.494 C 38.740 14.688,38.560 14.762,37.958 14.801 C 37.303 14.843,37.167 14.907,37.167 15.176 C 37.167 15.441,37.049 15.500,36.519 15.500 C 36.012 15.500,35.853 15.572,35.785 15.833 C 35.728 16.050,35.547 16.174,35.266 16.188 C 34.464 16.226,34.417 16.249,34.363 16.625 C 34.317 16.949,34.211 17.000,33.572 17.000 C 33.166 17.000,32.842 17.056,32.853 17.125 C 32.914 17.511,32.788 17.667,32.417 17.667 C 32.188 17.667,31.857 17.809,31.683 17.984 C 31.509 18.158,31.209 18.350,31.016 18.411 C 30.820 18.474,30.667 18.664,30.667 18.845 C 30.667 19.056,30.552 19.167,30.333 19.167 C 30.111 19.167,30.000 19.278,30.000 19.500 C 30.000 19.814,29.689 19.928,29.050 19.848 C 28.941 19.834,28.772 19.970,28.676 20.150 C 28.579 20.330,28.350 20.525,28.167 20.583 C 27.983 20.641,27.833 20.834,27.833 21.011 C 27.833 21.222,27.718 21.333,27.500 21.333 C 27.278 21.333,27.167 21.444,27.167 21.667 C 27.167 21.885,27.056 22.000,26.845 22.000 C 26.667 22.000,26.477 22.142,26.422 22.315 C 26.367 22.489,26.175 22.669,25.994 22.716 C 25.800 22.767,25.667 22.944,25.667 23.151 C 25.667 23.389,25.561 23.500,25.333 23.500 C 25.115 23.500,25.000 23.611,25.000 23.822 C 25.000 24.029,24.866 24.163,24.625 24.197 C 24.384 24.231,24.231 24.384,24.197 24.625 C 24.167 24.831,24.041 25.000,23.915 25.000 C 23.576 25.000,23.422 25.349,23.687 25.516 C 23.853 25.621,23.859 25.662,23.708 25.664 C 23.594 25.666,23.500 25.817,23.500 26.000 C 23.500 26.216,23.389 26.333,23.185 26.333 C 22.991 26.333,22.831 26.487,22.769 26.732 C 22.709 26.974,22.557 27.121,22.383 27.107 C 22.218 27.093,22.068 27.225,22.029 27.417 C 21.993 27.600,21.862 27.808,21.738 27.879 C 21.613 27.952,21.560 28.129,21.619 28.282 C 21.689 28.464,21.659 28.515,21.528 28.434 C 21.400 28.355,21.333 28.452,21.333 28.721 C 21.333 28.988,21.219 29.158,21.000 29.215 C 20.692 29.295,20.591 29.629,20.622 30.458 C 20.626 30.573,20.450 30.667,20.231 30.667 C 19.871 30.667,19.833 30.737,19.833 31.417 C 19.833 32.056,19.784 32.167,19.500 32.167 C 19.222 32.167,19.167 32.278,19.167 32.833 C 19.167 33.373,19.107 33.500,18.855 33.500 C 18.617 33.500,18.522 33.660,18.453 34.180 C 18.403 34.553,18.224 34.971,18.056 35.109 C 17.888 35.246,17.862 35.302,18.000 35.234 C 18.185 35.141,18.175 35.196,17.958 35.443 C 17.782 35.645,17.667 36.047,17.667 36.463 C 17.667 36.913,17.577 37.200,17.406 37.296 C 17.089 37.473,17.029 37.762,17.013 39.190 C 17.002 40.130,16.957 40.293,16.713 40.273 C 16.230 40.234,16.171 41.631,16.212 52.174 L 16.250 62.139 16.625 62.646 C 16.916 63.040,17.000 63.377,17.000 64.159 C 17.000 64.983,17.060 65.201,17.333 65.372 C 17.590 65.532,17.667 65.761,17.667 66.367 C 17.667 66.918,17.760 67.243,17.979 67.452 C 18.150 67.616,18.343 68.109,18.406 68.547 C 18.482 69.065,18.635 69.415,18.844 69.546 C 19.059 69.680,19.167 69.934,19.167 70.306 C 19.167 70.724,19.250 70.886,19.500 70.952 C 19.763 71.020,19.833 71.179,19.833 71.702 C 19.833 72.225,19.904 72.383,20.168 72.452 C 20.404 72.514,20.533 72.730,20.606 73.186 C 20.683 73.671,20.788 73.833,21.021 73.833 C 21.227 73.833,21.333 73.952,21.333 74.182 C 21.333 74.391,21.467 74.566,21.667 74.618 C 21.919 74.684,22.000 74.846,22.000 75.285 C 22.000 75.732,22.079 75.885,22.346 75.955 C 22.536 76.005,22.760 76.223,22.842 76.439 C 22.924 76.656,23.106 76.833,23.246 76.833 C 23.386 76.833,23.500 76.965,23.500 77.127 C 23.500 77.288,23.650 77.513,23.833 77.628 C 24.017 77.742,24.167 77.948,24.167 78.085 C 24.167 78.221,24.250 78.333,24.351 78.333 C 24.453 78.333,24.494 78.442,24.443 78.575 C 24.383 78.731,24.430 78.786,24.577 78.729 C 24.786 78.649,25.114 79.234,25.033 79.542 C 25.015 79.610,25.056 79.658,25.125 79.647 C 25.491 79.589,25.667 79.700,25.667 79.988 C 25.667 80.195,25.801 80.329,26.042 80.363 C 26.288 80.398,26.417 80.531,26.417 80.750 C 26.417 80.959,26.528 81.084,26.715 81.085 C 27.052 81.086,27.362 81.485,27.213 81.726 C 27.159 81.813,27.192 81.837,27.286 81.779 C 27.499 81.648,28.206 82.238,28.039 82.408 C 27.972 82.476,28.029 82.510,28.167 82.483 C 28.592 82.401,29.145 82.668,29.253 83.009 C 29.309 83.187,29.501 83.333,29.678 83.333 C 29.889 83.333,30.000 83.448,30.000 83.667 C 30.000 83.910,30.111 84.000,30.411 84.000 C 30.703 84.000,30.796 84.071,30.730 84.243 C 30.640 84.478,30.837 84.567,31.750 84.704 C 31.948 84.733,32.105 84.905,32.137 85.127 C 32.170 85.363,32.306 85.500,32.506 85.500 C 32.679 85.500,32.902 85.650,33.000 85.833 C 33.126 86.068,33.349 86.167,33.756 86.167 C 34.222 86.167,34.333 86.231,34.333 86.500 C 34.333 86.783,34.444 86.833,35.072 86.833 C 35.704 86.833,35.818 86.886,35.863 87.198 C 35.904 87.475,36.053 87.578,36.482 87.627 C 37.053 87.691,37.572 88.039,37.381 88.230 C 37.324 88.287,37.359 88.333,37.458 88.333 C 37.558 88.333,37.677 88.240,37.723 88.125 C 37.790 87.958,37.810 87.958,37.820 88.125 C 37.829 88.259,38.101 88.333,38.583 88.333 C 39.281 88.333,39.423 88.433,39.353 88.875 C 39.342 88.944,39.821 89.000,40.417 89.000 C 41.014 89.000,41.509 89.075,41.521 89.167 C 41.532 89.258,41.551 89.427,41.563 89.542 C 41.577 89.686,42.020 89.767,42.993 89.804 C 44.158 89.848,44.441 89.913,44.627 90.179 C 44.902 90.571,131.976 90.700,131.734 90.308 C 131.655 90.180,131.689 90.161,131.833 90.250 C 131.967 90.333,132.126 90.281,132.247 90.116 C 132.394 89.915,132.762 89.840,133.706 89.818 C 134.902 89.790,135.380 89.680,135.348 89.440 C 135.296 89.058,135.438 89.000,136.417 89.000 C 137.389 89.000,137.500 88.966,137.500 88.667 C 137.500 88.377,137.611 88.333,138.343 88.333 C 138.856 88.333,139.146 88.269,139.085 88.169 C 139.024 88.071,139.099 88.049,139.270 88.114 C 139.479 88.194,139.532 88.157,139.464 87.980 C 139.375 87.749,139.648 87.656,140.500 87.629 C 140.879 87.617,141.158 87.338,141.056 87.071 C 140.975 86.861,141.735 86.713,142.375 86.814 C 142.444 86.824,142.491 86.777,142.480 86.708 C 142.421 86.330,142.540 86.167,142.877 86.167 C 143.084 86.167,143.347 86.017,143.461 85.833 C 143.591 85.625,143.850 85.500,144.150 85.500 C 144.622 85.500,144.937 85.136,144.741 84.818 C 144.689 84.735,144.909 84.667,145.230 84.667 C 145.551 84.667,145.867 84.580,145.933 84.474 C 146.011 84.348,145.971 84.323,145.817 84.403 C 145.689 84.470,145.729 84.407,145.907 84.262 C 146.085 84.118,146.326 84.000,146.443 84.000 C 146.559 84.000,146.735 83.850,146.833 83.667 C 146.931 83.483,147.159 83.333,147.339 83.333 C 147.552 83.333,147.667 83.220,147.667 83.011 C 147.667 82.834,147.817 82.642,148.000 82.583 C 148.183 82.525,148.333 82.333,148.333 82.155 C 148.333 81.921,148.449 81.833,148.758 81.833 C 149.033 81.833,149.394 81.612,149.778 81.208 C 150.105 80.865,150.315 80.696,150.245 80.833 C 150.140 81.040,150.158 81.046,150.349 80.868 C 150.546 80.685,150.544 80.629,150.332 80.496 C 150.068 80.329,150.079 80.323,150.833 80.262 C 150.971 80.251,151.064 80.125,151.041 79.982 C 151.017 79.838,151.173 79.641,151.387 79.544 C 151.611 79.442,151.843 79.131,151.936 78.808 C 152.024 78.501,152.206 78.250,152.340 78.250 C 152.474 78.250,152.607 78.086,152.635 77.885 C 152.668 77.658,152.825 77.501,153.052 77.469 C 153.253 77.440,153.417 77.304,153.417 77.167 C 153.417 77.029,153.567 76.876,153.750 76.827 C 153.933 76.777,154.108 76.566,154.138 76.358 C 154.168 76.150,154.297 75.939,154.425 75.890 C 154.553 75.841,154.703 75.527,154.757 75.192 C 154.812 74.857,154.946 74.402,155.054 74.181 C 155.207 73.867,155.205 73.764,155.042 73.709 C 154.927 73.670,154.833 73.401,154.833 73.110 C 154.833 72.761,154.720 72.509,154.500 72.372 C 154.317 72.258,154.166 71.996,154.164 71.790 C 154.161 71.349,153.940 70.953,153.731 71.016 C 153.650 71.040,153.562 70.915,153.535 70.738 C 153.401 69.845,153.312 69.667,152.997 69.667 C 152.721 69.667,152.667 69.553,152.667 68.984 C 152.667 68.442,152.598 68.284,152.333 68.215 C 152.071 68.146,152.000 67.988,152.000 67.474 C 152.000 67.090,151.865 66.633,151.674 66.368 C 151.392 65.978,151.214 65.176,151.177 64.125 C 151.171 63.948,151.036 63.833,150.833 63.833 C 150.526 63.833,150.500 63.722,150.500 62.409 C 150.500 61.146,150.467 60.991,150.208 61.034 C 149.934 61.080,149.914 60.527,149.874 51.625 C 149.830 42.050,149.829 42.061,150.375 42.147 C 150.444 42.158,150.491 42.110,150.480 42.042 C 150.331 41.099,150.537 39.344,150.806 39.259 C 150.974 39.205,151.118 39.069,151.127 38.956 C 151.241 37.484,151.438 36.775,151.691 36.932 C 151.812 37.006,151.840 36.979,151.766 36.859 C 151.701 36.753,151.726 36.667,151.823 36.667 C 151.924 36.667,152.000 36.309,152.000 35.833 C 152.000 35.052,152.091 34.909,152.542 34.980 C 152.610 34.991,152.667 34.663,152.667 34.250 C 152.667 33.611,152.716 33.500,153.000 33.500 C 153.215 33.500,153.341 33.382,153.354 33.167 C 153.366 32.983,153.394 32.758,153.417 32.667 C 153.440 32.575,153.468 32.387,153.479 32.250 C 153.491 32.112,153.650 32.000,153.833 32.000 C 154.111 32.000,154.167 31.889,154.167 31.333 C 154.167 30.778,154.222 30.667,154.500 30.667 C 154.768 30.667,154.833 30.556,154.833 30.097 C 154.833 29.784,154.927 29.494,155.042 29.452 C 155.205 29.393,155.207 29.304,155.050 29.038 C 154.940 28.851,154.833 28.355,154.811 27.936 C 154.789 27.516,154.736 27.208,154.693 27.252 C 154.549 27.396,154.167 26.964,154.167 26.658 C 154.167 26.472,154.023 26.336,153.792 26.303 C 153.585 26.274,153.417 26.137,153.417 26.000 C 153.417 25.863,153.248 25.726,153.042 25.697 C 152.737 25.654,152.667 25.537,152.667 25.082 C 152.667 24.489,152.439 24.194,152.236 24.523 C 152.155 24.653,152.188 24.673,152.333 24.583 C 152.479 24.493,152.511 24.514,152.431 24.644 C 152.265 24.911,151.992 24.714,152.108 24.411 C 152.160 24.277,152.128 24.167,152.036 24.167 C 151.945 24.167,151.881 24.035,151.894 23.875 C 151.908 23.690,151.779 23.564,151.542 23.530 C 151.335 23.501,151.167 23.383,151.167 23.268 C 151.167 23.154,150.979 22.897,150.750 22.698 C 150.521 22.499,150.333 22.269,150.333 22.187 C 150.333 22.106,150.176 21.998,149.983 21.947 C 149.791 21.897,149.681 21.778,149.740 21.683 C 149.799 21.587,149.657 21.462,149.423 21.403 C 149.157 21.337,149.000 21.181,149.000 20.982 C 149.000 20.809,148.944 20.676,148.875 20.686 C 148.476 20.749,148.157 20.620,147.809 20.253 C 147.593 20.025,147.294 19.838,147.144 19.836 C 146.987 19.835,146.880 19.709,146.894 19.542 C 146.908 19.357,146.779 19.231,146.542 19.197 C 146.335 19.167,146.167 19.039,146.167 18.911 C 146.167 18.717,145.509 18.214,145.375 18.305 C 145.179 18.438,144.856 18.271,144.785 18.000 C 144.733 17.801,144.558 17.667,144.349 17.667 C 144.037 17.667,143.921 17.497,143.980 17.125 C 143.991 17.056,143.944 17.009,143.875 17.020 C 143.209 17.125,142.702 16.960,142.530 16.583 C 142.380 16.254,142.218 16.167,141.754 16.167 C 141.278 16.167,141.167 16.104,141.167 15.833 C 141.167 15.549,141.056 15.500,140.417 15.500 C 139.778 15.500,139.667 15.451,139.667 15.167 C 139.667 14.888,139.556 14.833,138.985 14.833 C 138.502 14.833,138.223 14.735,138.027 14.495 C 137.844 14.271,137.467 14.124,136.917 14.060 C 136.458 14.006,135.948 13.843,135.782 13.697 C 135.594 13.531,135.063 13.405,134.366 13.360 C 133.520 13.306,133.198 13.214,133.032 12.978 C 132.821 12.675,131.574 12.667,88.296 12.667 C 63.811 12.667,43.824 12.713,43.881 12.770 M264.669 13.875 C 264.672 14.461,264.857 14.868,265.099 14.822 C 265.893 14.673,266.833 14.859,266.833 15.167 C 266.833 15.465,266.944 15.500,267.897 15.500 C 268.809 15.500,268.973 15.546,269.046 15.823 C 269.110 16.068,269.304 16.158,269.857 16.198 C 270.368 16.235,270.583 16.324,270.583 16.500 C 270.583 16.637,270.671 16.750,270.778 16.750 C 270.885 16.750,271.028 16.806,271.097 16.875 C 271.166 16.944,271.386 17.000,271.585 17.000 C 271.785 17.000,272.084 17.150,272.250 17.333 C 272.416 17.517,272.709 17.667,272.902 17.667 C 273.095 17.667,273.347 17.817,273.461 18.000 C 273.595 18.214,273.850 18.333,274.173 18.333 C 274.501 18.333,274.715 18.435,274.785 18.625 C 274.932 19.023,275.168 19.161,275.708 19.164 C 276.055 19.166,276.167 19.248,276.167 19.500 C 276.167 19.727,276.278 19.833,276.516 19.833 C 276.724 19.833,276.900 19.967,276.952 20.167 C 277.001 20.355,277.179 20.500,277.361 20.500 C 277.538 20.500,277.848 20.678,278.050 20.897 C 278.252 21.115,278.567 21.322,278.750 21.357 C 278.934 21.392,279.083 21.533,279.083 21.669 C 279.083 21.805,279.252 21.941,279.458 21.970 C 279.699 22.004,279.833 22.138,279.833 22.345 C 279.833 22.556,279.948 22.667,280.167 22.667 C 280.385 22.667,280.500 22.778,280.500 22.989 C 280.500 23.166,280.646 23.357,280.825 23.414 C 281.003 23.471,281.196 23.663,281.253 23.842 C 281.309 24.021,281.492 24.167,281.658 24.167 C 281.825 24.167,282.000 24.317,282.048 24.500 C 282.096 24.683,282.250 24.833,282.389 24.833 C 282.529 24.833,282.667 25.002,282.697 25.208 C 282.731 25.446,282.857 25.575,283.042 25.560 C 283.202 25.547,283.343 25.604,283.354 25.685 C 283.366 25.767,283.384 25.927,283.396 26.042 C 283.407 26.156,283.585 26.274,283.792 26.303 C 284.063 26.342,284.167 26.468,284.167 26.762 C 284.167 26.984,284.317 27.317,284.500 27.500 C 284.683 27.683,284.833 27.953,284.833 28.099 C 284.833 28.245,284.976 28.402,285.151 28.448 C 285.326 28.493,285.507 28.674,285.552 28.849 C 285.601 29.034,285.781 29.167,285.984 29.167 C 286.282 29.167,286.333 29.268,286.333 29.849 C 286.333 30.391,286.402 30.549,286.667 30.618 C 286.903 30.680,287.000 30.846,287.000 31.186 C 287.000 31.450,287.079 31.667,287.177 31.667 C 287.274 31.667,287.299 31.753,287.234 31.859 C 287.160 31.978,287.188 32.006,287.308 31.932 C 287.505 31.810,287.915 32.570,287.856 32.946 C 287.839 33.053,287.913 33.196,288.021 33.263 C 288.153 33.344,288.178 33.307,288.097 33.151 C 288.030 33.022,288.093 33.062,288.238 33.240 C 288.382 33.418,288.500 33.725,288.500 33.923 C 288.500 34.309,289.038 34.906,289.222 34.723 C 289.283 34.661,289.333 34.680,289.333 34.764 C 289.333 34.855,293.351 34.898,299.333 34.871 L 309.333 34.826 309.336 62.455 C 309.337 77.650,309.398 90.178,309.471 90.293 C 309.577 90.458,311.929 90.493,320.677 90.460 L 331.750 90.417 331.792 62.623 L 331.834 34.830 357.292 34.833 C 371.294 34.835,382.825 34.835,382.917 34.832 C 383.008 34.830,382.971 34.756,382.833 34.667 C 382.667 34.559,382.653 34.504,382.792 34.503 C 382.956 34.501,383.000 32.271,383.000 23.917 L 383.000 13.333 323.833 13.333 L 264.667 13.333 264.669 13.875 M122.536 36.241 C 122.929 36.374,123.719 36.557,124.292 36.648 C 124.865 36.740,125.501 36.932,125.704 37.074 C 125.908 37.217,126.197 37.333,126.348 37.333 C 126.499 37.333,126.806 37.479,127.032 37.656 C 127.258 37.834,127.638 38.028,127.876 38.088 C 128.114 38.148,128.438 38.340,128.597 38.515 C 128.755 38.690,128.961 38.833,129.054 38.833 C 129.711 38.833,133.833 43.512,133.833 44.258 C 133.833 44.369,133.941 44.549,134.073 44.658 C 134.204 44.767,134.363 45.089,134.425 45.373 C 134.488 45.657,134.680 46.120,134.852 46.403 C 135.024 46.685,135.166 47.158,135.166 47.453 C 135.166 47.747,135.296 48.347,135.455 48.786 C 135.853 49.886,135.850 53.088,135.450 54.214 C 135.294 54.653,135.166 55.253,135.166 55.547 C 135.166 55.842,135.024 56.315,134.852 56.597 C 134.680 56.880,134.488 57.343,134.425 57.627 C 134.363 57.911,134.204 58.233,134.073 58.342 C 133.941 58.451,133.833 58.631,133.833 58.742 C 133.833 59.631,130.400 63.362,128.500 64.539 C 127.599 65.096,126.107 65.832,125.874 65.833 C 125.759 65.833,125.386 65.983,125.044 66.167 C 124.701 66.350,124.146 66.500,123.809 66.500 C 123.472 66.500,122.633 66.608,121.945 66.739 C 120.391 67.037,55.567 67.161,54.825 66.868 C 54.591 66.776,53.879 66.647,53.242 66.581 C 52.605 66.516,51.858 66.330,51.583 66.168 C 51.308 66.006,50.809 65.825,50.474 65.766 C 50.140 65.706,49.823 65.547,49.771 65.412 C 49.720 65.277,49.548 65.167,49.389 65.167 C 48.688 65.167,44.500 61.787,44.500 61.220 C 44.500 61.106,44.350 60.931,44.167 60.833 C 43.983 60.735,43.833 60.557,43.833 60.437 C 43.833 60.317,43.688 60.086,43.509 59.925 C 43.331 59.764,43.139 59.421,43.083 59.163 C 43.026 58.905,42.879 58.656,42.756 58.609 C 42.632 58.561,42.479 58.274,42.414 57.970 C 42.349 57.665,42.190 57.296,42.060 57.148 C 41.930 57.000,41.753 56.449,41.668 55.922 C 41.582 55.396,41.415 54.849,41.298 54.707 C 41.141 54.518,41.083 53.657,41.083 51.500 C 41.083 49.343,41.141 48.482,41.298 48.293 C 41.415 48.151,41.582 47.604,41.668 47.078 C 41.753 46.551,41.928 46.000,42.056 45.852 C 42.184 45.704,42.341 45.364,42.405 45.096 C 42.468 44.829,42.666 44.425,42.844 44.199 C 43.021 43.973,43.167 43.698,43.167 43.587 C 43.167 43.476,43.317 43.249,43.500 43.083 C 43.683 42.917,43.833 42.713,43.833 42.629 C 43.833 42.084,47.368 38.667,47.932 38.667 C 48.061 38.667,48.167 38.589,48.167 38.494 C 48.167 38.399,48.496 38.180,48.898 38.008 C 49.301 37.835,49.680 37.613,49.741 37.514 C 49.803 37.415,49.981 37.333,50.137 37.333 C 50.294 37.333,50.695 37.187,51.029 37.008 C 51.363 36.829,52.037 36.629,52.527 36.565 C 53.016 36.500,53.642 36.350,53.917 36.230 C 54.704 35.888,121.522 35.899,122.536 36.241 M73.769 104.580 C 73.535 104.798,73.172 105.000,72.963 105.030 C 72.721 105.064,72.592 105.189,72.606 105.375 C 72.622 105.576,72.509 105.667,72.243 105.667 C 71.969 105.667,71.841 105.776,71.803 106.042 C 71.774 106.248,71.637 106.417,71.500 106.417 C 71.339 106.417,71.231 106.612,71.198 106.962 C 71.164 107.313,71.004 107.599,70.748 107.767 C 70.080 108.204,70.177 113.280,70.857 113.458 C 71.050 113.508,71.167 113.689,71.167 113.936 C 71.167 114.222,71.260 114.333,71.500 114.333 C 71.722 114.333,71.833 114.444,71.833 114.667 C 71.833 114.889,71.944 115.000,72.167 115.000 C 72.350 115.000,72.509 115.075,72.521 115.167 C 72.532 115.258,72.551 115.427,72.563 115.542 C 72.574 115.656,72.677 115.759,72.792 115.771 C 72.906 115.782,73.070 115.801,73.155 115.813 C 73.241 115.824,73.357 115.980,73.414 116.159 C 73.585 116.697,80.036 116.660,80.415 116.118 C 80.557 115.916,80.765 115.750,80.878 115.750 C 80.991 115.750,81.107 115.581,81.137 115.375 C 81.174 115.114,81.303 115.000,81.562 115.000 C 82.139 115.000,82.166 113.818,81.603 113.255 C 81.378 113.029,81.168 112.711,81.136 112.547 C 81.059 112.143,79.167 112.006,79.167 112.405 C 79.167 112.543,78.998 112.744,78.792 112.854 C 78.585 112.963,78.319 113.191,78.199 113.360 C 78.037 113.588,77.767 113.667,77.145 113.667 C 76.336 113.667,75.715 113.356,75.966 113.077 C 76.031 113.005,75.952 112.994,75.792 113.052 C 75.631 113.109,75.500 113.084,75.500 112.995 C 75.500 112.906,75.313 112.833,75.083 112.833 C 74.778 112.833,74.667 112.744,74.667 112.500 C 74.667 112.278,74.556 112.167,74.333 112.167 C 74.020 112.167,74.000 112.056,74.000 110.333 C 74.000 108.611,74.020 108.500,74.333 108.500 C 74.556 108.500,74.667 108.389,74.667 108.167 C 74.667 107.897,74.778 107.833,75.250 107.833 C 75.571 107.833,75.833 107.754,75.833 107.657 C 75.833 107.560,75.921 107.535,76.028 107.601 C 76.159 107.682,76.188 107.630,76.117 107.444 C 75.949 107.005,77.512 107.047,77.788 107.489 C 77.905 107.676,78.219 107.833,78.536 107.864 C 78.888 107.898,79.083 108.006,79.083 108.167 C 79.083 108.357,79.332 108.429,80.125 108.466 C 80.994 108.508,81.167 108.471,81.167 108.246 C 81.167 107.914,81.583 107.473,81.746 107.633 C 81.811 107.697,81.846 107.638,81.823 107.500 C 81.800 107.362,81.836 107.125,81.903 106.972 C 82.138 106.438,81.944 105.754,81.542 105.697 C 81.301 105.663,81.167 105.529,81.167 105.322 C 81.167 105.093,81.051 105.000,80.768 105.000 C 80.548 105.000,80.326 104.888,80.273 104.750 C 80.220 104.612,80.062 104.500,79.922 104.500 C 79.782 104.500,79.667 104.429,79.667 104.342 C 79.667 103.939,74.224 104.159,73.769 104.580 M102.270 104.286 C 102.213 104.342,102.167 104.522,102.167 104.685 C 102.167 104.914,102.007 104.992,101.458 105.032 C 100.903 105.072,100.755 105.146,100.773 105.375 C 100.789 105.578,100.675 105.667,100.398 105.667 C 100.129 105.667,100.000 105.762,100.000 105.960 C 100.000 106.121,99.855 106.344,99.677 106.455 C 99.471 106.584,99.335 106.884,99.302 107.287 C 99.273 107.633,99.195 107.879,99.128 107.833 C 98.725 107.558,98.519 108.515,98.551 110.515 C 98.582 112.485,98.601 112.591,98.958 112.748 C 99.263 112.881,99.333 113.046,99.333 113.623 C 99.333 114.222,99.385 114.333,99.667 114.333 C 99.889 114.333,100.000 114.444,100.000 114.667 C 100.000 114.889,100.111 115.000,100.333 115.000 C 100.632 115.000,100.699 115.093,100.652 115.440 C 100.628 115.624,101.043 115.806,101.351 115.747 C 101.543 115.710,101.617 115.768,101.562 115.911 C 101.516 116.033,101.569 116.190,101.681 116.259 C 101.807 116.337,101.842 116.316,101.773 116.204 C 101.712 116.104,101.739 115.975,101.835 115.916 C 101.930 115.857,101.998 115.870,101.984 115.946 C 101.891 116.482,102.003 116.500,105.333 116.500 C 108.504 116.500,108.667 116.484,108.667 116.181 C 108.667 115.939,108.827 115.835,109.333 115.750 C 109.829 115.666,110.000 115.559,110.000 115.330 C 110.000 115.143,110.141 115.002,110.362 114.970 C 110.624 114.931,110.740 114.778,110.784 114.417 C 110.871 113.687,110.965 113.492,111.204 113.540 C 111.354 113.571,111.441 113.242,111.500 112.417 C 111.563 111.536,111.644 111.250,111.830 111.250 C 112.237 111.250,112.242 110.075,111.836 109.669 C 111.568 109.401,111.500 109.114,111.500 108.250 C 111.500 107.278,111.466 107.167,111.167 107.167 C 110.944 107.167,110.833 107.056,110.833 106.833 C 110.833 106.650,110.833 106.462,110.833 106.417 C 110.833 106.246,110.245 105.722,110.125 105.786 C 110.056 105.823,110.000 105.741,110.000 105.603 C 110.000 105.297,109.770 105.146,109.098 105.008 C 108.815 104.950,108.597 104.831,108.614 104.743 C 108.704 104.275,102.712 103.843,102.270 104.286 M129.875 104.277 C 129.714 104.342,129.667 105.731,129.667 110.431 L 129.667 116.500 131.417 116.500 L 133.167 116.500 133.177 113.458 C 133.184 111.449,133.239 110.545,133.340 110.795 C 133.424 111.004,133.606 111.218,133.746 111.272 C 133.886 111.325,134.000 111.548,134.000 111.768 C 134.000 111.987,134.056 112.158,134.125 112.147 C 134.494 112.089,134.667 112.202,134.667 112.500 C 134.667 112.722,134.778 112.833,135.000 112.833 C 135.219 112.833,135.333 112.944,135.333 113.157 C 135.333 113.335,135.405 113.525,135.493 113.579 C 135.580 113.633,135.609 113.791,135.556 113.929 C 135.496 114.083,135.543 114.162,135.677 114.132 C 135.796 114.105,135.997 114.290,136.123 114.542 C 136.249 114.794,136.455 115.000,136.581 115.000 C 136.707 115.000,136.834 115.169,136.863 115.375 C 136.893 115.581,137.029 115.750,137.167 115.750 C 137.304 115.750,137.441 115.919,137.470 116.125 C 137.521 116.488,137.583 116.500,139.347 116.500 L 141.171 116.500 141.127 110.375 L 141.083 104.250 139.333 104.250 L 137.583 104.250 137.533 106.833 C 137.502 108.432,137.414 109.480,137.301 109.583 C 137.172 109.700,137.158 109.680,137.253 109.513 C 137.353 109.338,137.317 109.304,137.111 109.383 C 136.901 109.463,136.833 109.395,136.833 109.105 C 136.833 108.856,136.686 108.653,136.416 108.530 C 136.186 108.425,136.017 108.246,136.041 108.132 C 136.064 108.018,135.915 107.899,135.708 107.867 C 135.364 107.815,135.211 107.387,135.318 106.777 C 135.332 106.701,135.191 106.598,135.005 106.550 C 134.809 106.498,134.667 106.323,134.667 106.132 C 134.667 105.942,134.525 105.765,134.333 105.715 C 134.149 105.667,134.000 105.488,134.000 105.314 C 134.000 105.090,133.880 105.000,133.583 105.000 C 133.250 105.000,133.167 104.917,133.167 104.583 C 133.167 104.177,130.693 103.947,129.875 104.277 M161.230 104.601 C 161.058 104.824,160.724 105.021,160.489 105.037 C 160.113 105.064,160.056 105.149,160.022 105.738 C 159.985 106.357,159.747 106.736,159.494 106.580 C 159.379 106.508,159.375 106.529,159.265 107.788 C 159.223 108.268,159.260 108.704,159.347 108.758 C 159.434 108.812,159.455 108.938,159.394 109.037 C 159.332 109.137,159.353 109.174,159.441 109.120 C 159.748 108.930,159.983 109.266,160.023 109.952 C 160.046 110.333,160.106 110.641,160.157 110.636 C 160.891 110.565,161.306 110.703,161.393 111.049 C 161.469 111.350,161.620 111.440,162.106 111.473 C 162.446 111.496,162.842 111.648,162.987 111.810 C 163.160 112.005,163.533 112.120,164.079 112.146 C 164.967 112.189,165.142 112.319,165.081 112.889 C 165.060 113.087,165.033 113.344,165.021 113.458 C 164.978 113.886,162.865 113.729,162.803 113.293 C 162.772 113.075,162.612 112.896,162.417 112.863 C 162.233 112.831,161.986 112.680,161.868 112.528 C 161.702 112.314,161.375 112.250,160.451 112.250 L 159.250 112.250 159.198 112.981 C 159.169 113.383,159.038 113.820,158.906 113.951 C 158.591 114.267,158.604 114.391,158.989 114.740 C 159.166 114.900,159.271 115.136,159.221 115.264 C 159.116 115.540,159.627 115.770,160.458 115.821 C 160.573 115.828,160.667 115.983,160.667 116.167 C 160.667 116.711,166.558 116.678,167.269 116.129 C 167.574 115.894,167.666 115.864,167.521 116.046 C 167.387 116.214,167.365 116.333,167.468 116.333 C 167.565 116.333,167.692 116.183,167.750 116.000 C 167.808 115.817,167.965 115.667,168.099 115.667 C 168.358 115.667,168.728 114.900,168.582 114.664 C 168.489 114.515,168.803 114.257,169.083 114.253 C 169.176 114.251,169.274 113.642,169.304 112.875 C 169.356 111.577,169.340 111.500,169.013 111.500 C 168.822 111.500,168.657 111.425,168.646 111.333 C 168.634 111.242,168.606 111.092,168.583 111.000 C 168.560 110.908,168.532 110.646,168.521 110.417 C 168.505 110.094,168.410 110.000,168.102 110.000 C 167.825 110.000,167.711 109.911,167.727 109.708 C 167.746 109.464,167.582 109.409,166.719 109.367 C 165.802 109.323,165.682 109.277,165.636 108.952 C 165.592 108.647,165.459 108.578,164.833 108.535 C 164.421 108.507,164.058 108.413,164.028 108.325 C 163.997 108.238,163.899 108.167,163.810 108.167 C 163.720 108.167,163.701 108.253,163.766 108.359 C 163.831 108.465,163.814 108.508,163.727 108.454 C 163.641 108.401,163.552 108.089,163.530 107.762 L 163.490 107.167 164.203 107.169 C 164.596 107.171,165.029 107.244,165.167 107.333 C 165.348 107.451,165.357 107.496,165.198 107.497 C 165.079 107.499,165.027 107.575,165.083 107.667 C 165.140 107.758,165.511 107.833,165.908 107.833 C 166.490 107.833,166.625 107.889,166.606 108.122 C 166.574 108.527,167.340 108.544,167.685 108.146 C 167.834 107.974,168.070 107.833,168.210 107.833 C 168.809 107.833,168.808 105.115,168.208 105.030 C 167.976 104.997,167.833 104.861,167.833 104.673 C 167.833 103.962,161.775 103.896,161.230 104.601 M187.046 104.337 C 186.528 104.545,186.524 112.101,187.042 112.060 C 187.291 112.040,187.333 112.190,187.333 113.102 C 187.333 114.562,187.472 115.038,187.876 114.957 C 187.986 114.935,188.101 115.085,188.133 115.292 C 188.164 115.498,188.257 115.667,188.338 115.667 C 188.420 115.667,188.651 115.835,188.851 116.042 C 189.052 116.248,189.162 116.304,189.095 116.167 C 189.012 115.993,189.045 116.002,189.204 116.195 C 189.596 116.670,196.000 116.649,196.000 116.173 C 196.000 115.869,196.172 115.755,196.542 115.814 C 196.610 115.824,196.667 115.651,196.667 115.428 C 196.667 115.135,196.770 115.008,197.042 114.970 C 197.311 114.932,197.432 114.787,197.470 114.456 C 197.501 114.187,197.595 114.039,197.697 114.102 C 198.087 114.343,198.162 113.539,198.164 109.045 L 198.167 104.340 197.791 104.245 C 197.585 104.194,196.816 104.173,196.083 104.201 L 194.750 104.250 194.706 108.524 L 194.661 112.799 194.247 112.902 C 193.981 112.969,193.833 113.124,193.833 113.337 C 193.833 113.632,193.719 113.667,192.750 113.667 C 192.139 113.667,191.667 113.594,191.667 113.500 C 191.667 113.408,191.671 113.286,191.677 113.229 C 191.683 113.172,191.514 113.034,191.302 112.924 C 191.090 112.813,190.938 112.629,190.963 112.514 C 190.989 112.399,190.857 112.265,190.671 112.216 C 190.347 112.131,190.333 112.003,190.333 108.920 C 190.333 107.156,190.286 105.365,190.227 104.940 L 190.121 104.167 188.769 104.177 C 188.025 104.183,187.250 104.255,187.046 104.337 M217.000 110.333 L 217.000 116.500 220.917 116.500 L 224.833 116.500 224.833 115.083 L 224.833 113.667 222.333 113.667 L 219.833 113.667 219.833 108.917 L 219.833 104.167 218.417 104.167 L 217.000 104.167 217.000 110.333 M241.701 104.309 C 241.547 104.407,241.499 104.822,241.534 105.764 L 241.583 107.083 243.375 107.131 L 245.167 107.178 245.167 111.839 L 245.167 116.500 246.583 116.500 L 248.000 116.500 248.000 111.833 L 248.000 107.167 249.570 107.167 C 250.433 107.167,251.258 107.121,251.403 107.066 C 251.788 106.918,251.788 104.416,251.403 104.268 C 251.002 104.114,241.948 104.152,241.701 104.309 M269.667 110.333 L 269.667 116.500 271.083 116.500 L 272.500 116.500 272.500 110.333 L 272.500 104.167 271.083 104.167 L 269.667 104.167 269.667 110.333 M291.444 104.278 C 291.383 104.339,291.333 107.114,291.333 110.444 L 291.333 116.500 293.066 116.500 C 295.148 116.500,295.000 116.715,295.000 113.681 C 295.000 112.420,295.045 111.344,295.100 111.289 C 295.307 111.082,295.667 111.385,295.667 111.768 C 295.667 112.056,295.760 112.167,296.000 112.167 C 296.222 112.167,296.333 112.278,296.333 112.500 C 296.333 112.744,296.444 112.833,296.750 112.833 C 297.127 112.833,297.167 112.899,297.167 113.516 C 297.167 114.058,297.235 114.216,297.500 114.285 C 297.683 114.333,297.833 114.483,297.833 114.618 C 297.833 114.754,297.983 114.904,298.167 114.952 C 298.350 115.000,298.500 115.132,298.500 115.245 C 298.500 115.358,298.728 115.689,299.007 115.981 L 299.514 116.512 301.132 116.464 L 302.750 116.417 302.750 110.333 L 302.750 104.250 301.042 104.198 L 299.333 104.145 299.333 107.073 C 299.333 109.363,299.286 110.000,299.117 110.000 C 298.765 110.000,298.500 109.633,298.500 109.145 C 298.500 108.836,298.393 108.655,298.167 108.583 C 297.983 108.525,297.833 108.333,297.833 108.155 C 297.833 107.944,297.718 107.833,297.500 107.833 C 297.275 107.833,297.167 107.722,297.167 107.492 C 297.167 107.305,296.979 106.964,296.750 106.735 C 296.521 106.506,296.333 106.172,296.333 105.992 C 296.333 105.813,296.277 105.676,296.208 105.686 C 295.840 105.745,295.667 105.632,295.667 105.333 C 295.667 105.117,295.556 105.000,295.351 105.000 C 295.154 105.000,294.997 104.844,294.932 104.583 C 294.828 104.171,291.815 103.907,291.444 104.278 M324.333 104.317 C 324.086 104.390,323.926 104.554,323.940 104.720 C 323.955 104.903,323.838 105.000,323.605 105.000 C 323.408 105.000,323.153 105.150,323.039 105.333 C 322.924 105.517,322.719 105.667,322.582 105.667 C 322.200 105.667,321.667 106.287,321.667 106.731 C 321.667 106.989,321.549 107.159,321.330 107.216 C 320.878 107.334,320.882 113.583,321.333 113.583 C 321.500 113.583,321.611 113.806,321.667 114.250 C 321.712 114.617,321.844 114.926,321.958 114.938 C 322.073 114.949,322.223 114.977,322.292 114.999 C 322.360 115.021,322.465 115.033,322.525 115.025 C 322.584 115.018,322.596 115.151,322.551 115.322 C 322.485 115.576,322.595 115.653,323.152 115.747 C 323.672 115.835,323.833 115.938,323.833 116.181 C 323.833 116.690,330.819 116.675,330.952 116.167 C 331.000 115.983,331.176 115.833,331.343 115.833 C 331.510 115.833,331.691 115.762,331.746 115.674 C 331.800 115.586,331.964 115.561,332.111 115.617 C 332.295 115.688,332.352 115.646,332.294 115.485 C 332.247 115.356,332.118 115.271,332.008 115.296 C 331.899 115.321,331.854 115.268,331.910 115.178 C 331.965 115.088,332.121 115.057,332.255 115.108 C 332.464 115.189,332.500 114.820,332.500 112.601 L 332.500 110.000 331.117 110.000 C 330.263 110.000,329.657 110.077,329.533 110.200 C 329.378 110.356,329.333 110.348,329.333 110.168 C 329.333 110.012,329.254 110.042,329.089 110.260 C 328.916 110.489,328.842 111.034,328.839 112.125 L 328.833 113.667 327.435 113.667 C 326.083 113.667,326.033 113.653,325.932 113.251 C 325.874 113.022,325.773 112.847,325.705 112.861 C 325.413 112.922,325.029 112.620,325.114 112.396 C 325.166 112.262,325.142 112.165,325.062 112.180 C 324.647 112.255,324.500 112.121,324.500 111.668 C 324.500 111.350,324.379 111.094,324.167 110.961 C 323.983 110.847,323.833 110.616,323.833 110.448 C 323.833 110.088,324.241 109.631,324.413 109.800 C 324.478 109.864,324.516 109.804,324.496 109.667 C 324.391 108.928,324.510 108.500,324.822 108.500 C 324.999 108.500,325.192 108.350,325.250 108.167 C 325.308 107.983,325.453 107.833,325.572 107.833 C 325.691 107.833,325.979 107.683,326.212 107.500 C 326.488 107.283,326.888 107.167,327.361 107.167 C 327.906 107.167,328.138 107.250,328.295 107.500 C 328.436 107.726,328.683 107.833,329.065 107.833 C 329.488 107.833,329.650 107.916,329.715 108.167 C 329.786 108.437,329.942 108.500,330.547 108.500 C 331.459 108.500,331.755 108.204,331.821 107.227 C 331.828 107.122,331.965 107.047,332.125 107.060 C 332.607 107.098,332.615 106.099,332.134 105.763 C 331.923 105.615,331.750 105.401,331.750 105.288 C 331.750 105.176,331.579 105.059,331.370 105.029 C 331.162 105.000,330.802 104.800,330.570 104.586 C 330.132 104.180,325.476 103.979,324.333 104.317 M106.417 107.500 C 106.583 107.683,106.848 107.833,107.007 107.833 C 107.180 107.833,107.287 107.950,107.273 108.125 C 107.258 108.310,107.388 108.436,107.625 108.470 C 107.930 108.513,108.000 108.629,108.000 109.089 C 108.000 109.484,108.100 109.709,108.333 109.833 C 108.528 109.938,108.667 110.182,108.667 110.423 C 108.667 110.648,108.517 110.983,108.333 111.167 C 108.150 111.350,108.000 111.650,108.000 111.833 C 108.000 112.056,107.889 112.167,107.667 112.167 C 107.473 112.167,107.333 112.278,107.333 112.432 C 107.333 112.578,107.183 112.737,106.998 112.786 C 106.814 112.834,106.618 113.052,106.563 113.270 C 106.420 113.841,104.428 113.882,104.281 113.317 C 104.230 113.124,104.114 113.013,104.023 113.069 C 103.931 113.126,103.809 113.096,103.752 113.003 C 103.694 112.910,103.464 112.833,103.240 112.833 C 102.917 112.833,102.833 112.747,102.833 112.415 C 102.833 112.185,102.683 111.868,102.500 111.711 C 102.033 111.312,102.004 109.248,102.463 109.128 C 102.625 109.086,102.771 108.883,102.787 108.679 C 102.826 108.158,103.139 107.833,103.602 107.833 C 103.819 107.833,104.091 107.683,104.205 107.500 C 104.369 107.237,104.594 107.167,105.264 107.167 C 105.903 107.167,106.190 107.250,106.417 107.500 M159.167 114.367 C 159.167 114.636,159.117 114.684,158.981 114.548 C 158.879 114.446,158.846 114.281,158.908 114.181 C 159.080 113.902,159.167 113.964,159.167 114.367 " stroke="none" fill="#6c6c73" fill-rule="evenodd"></path><path id="path2" d="M294.542 34.958 C 297.269 34.984,301.731 34.984,304.458 34.958 C 307.185 34.933,304.954 34.912,299.500 34.912 C 294.046 34.912,291.815 34.933,294.542 34.958 M344.458 34.958 C 351.448 34.982,362.885 34.982,369.875 34.958 C 376.865 34.934,371.146 34.915,357.167 34.915 C 343.188 34.915,337.469 34.934,344.458 34.958 M53.916 36.659 C 52.907 36.819,51.857 37.064,51.582 37.205 C 51.308 37.345,50.840 37.512,50.544 37.576 C 50.247 37.640,49.960 37.763,49.907 37.849 C 49.854 37.935,49.563 38.108,49.261 38.235 C 47.736 38.872,45.098 41.264,43.946 43.055 C 42.953 44.598,42.868 44.762,42.366 46.097 C 39.657 53.310,42.661 61.261,49.459 64.868 C 50.169 65.244,50.975 65.610,51.250 65.681 C 51.525 65.752,52.087 65.947,52.500 66.114 C 53.437 66.492,122.138 66.590,123.417 66.215 C 125.338 65.650,126.406 65.201,128.380 64.126 C 129.562 63.483,132.833 60.200,132.833 59.657 C 132.833 59.584,132.928 59.425,133.044 59.304 C 133.376 58.957,134.120 57.425,134.255 56.812 C 134.322 56.505,134.478 56.100,134.602 55.911 C 135.013 55.285,135.257 51.735,135.040 49.560 C 134.551 44.668,131.471 40.344,126.837 38.044 C 126.239 37.748,125.635 37.504,125.495 37.502 C 125.355 37.501,125.077 37.386,124.878 37.246 C 123.750 36.456,58.604 35.917,53.916 36.659 M110.441 36.977 C 123.239 37.079,123.813 37.097,124.148 37.399 C 124.353 37.585,124.840 37.748,125.332 37.796 C 125.852 37.845,126.167 37.955,126.167 38.087 C 126.167 38.336,126.536 38.500,127.097 38.500 C 127.342 38.500,127.500 38.597,127.500 38.748 C 127.500 38.884,127.744 39.097,128.042 39.222 C 128.340 39.346,128.686 39.572,128.812 39.724 C 128.938 39.876,129.173 40.000,129.334 40.000 C 129.496 40.000,129.667 40.150,129.715 40.333 C 129.763 40.517,129.922 40.667,130.068 40.667 C 130.214 40.667,130.333 40.781,130.333 40.920 C 130.333 41.060,130.514 41.256,130.736 41.357 C 130.957 41.458,131.175 41.681,131.220 41.854 C 131.265 42.026,131.422 42.167,131.568 42.167 C 131.716 42.167,131.833 42.304,131.833 42.478 C 131.833 42.648,131.973 42.967,132.144 43.186 C 132.314 43.404,132.507 43.752,132.572 43.958 C 132.636 44.165,132.796 44.333,132.926 44.333 C 133.073 44.333,133.203 44.584,133.269 44.995 C 133.339 45.436,133.479 45.690,133.687 45.757 C 133.943 45.838,134.000 46.022,134.000 46.760 C 134.000 47.483,134.067 47.705,134.333 47.872 C 134.648 48.069,134.667 48.261,134.667 51.389 C 134.667 54.445,134.641 54.730,134.333 55.121 C 134.120 55.393,134.000 55.797,134.000 56.247 C 134.000 56.737,133.899 57.039,133.667 57.250 C 133.483 57.416,133.333 57.684,133.333 57.846 C 133.333 58.008,133.146 58.364,132.917 58.636 C 132.688 58.909,132.500 59.244,132.500 59.381 C 132.500 59.519,132.394 59.672,132.264 59.721 C 132.135 59.771,131.928 59.989,131.806 60.206 C 131.223 61.239,130.898 61.665,130.693 61.666 C 130.570 61.666,130.430 61.817,130.382 62.000 C 130.334 62.183,130.239 62.333,130.170 62.333 C 130.045 62.333,129.093 63.026,128.349 63.659 C 128.128 63.846,127.858 64.000,127.749 64.000 C 127.641 64.000,127.416 64.150,127.250 64.333 C 127.084 64.517,126.783 64.667,126.580 64.667 C 126.377 64.667,126.033 64.805,125.814 64.975 C 125.596 65.144,125.047 65.332,124.596 65.392 C 124.144 65.452,123.630 65.633,123.453 65.793 C 122.842 66.346,53.804 66.507,52.744 65.957 C 52.466 65.813,51.941 65.644,51.578 65.582 C 51.214 65.520,50.713 65.326,50.465 65.151 C 50.217 64.976,49.913 64.833,49.789 64.833 C 49.666 64.833,49.311 64.646,49.000 64.417 C 48.689 64.188,48.362 64.000,48.273 64.000 C 48.067 64.000,47.906 63.857,46.074 62.062 C 44.216 60.242,43.534 59.220,42.419 56.591 C 41.407 54.205,41.377 48.530,42.366 46.583 C 42.506 46.308,42.673 45.864,42.737 45.596 C 42.801 45.329,42.999 44.925,43.177 44.699 C 43.355 44.473,43.500 44.227,43.500 44.153 C 43.500 43.522,46.766 39.965,48.167 39.070 C 49.298 38.347,50.592 37.710,51.201 37.576 C 51.500 37.510,51.900 37.355,52.089 37.231 C 52.924 36.684,66.230 36.626,110.441 36.977 M255.279 37.276 C 255.153 37.403,255.469 37.833,255.687 37.833 C 255.768 37.833,255.833 37.758,255.833 37.667 C 255.833 37.575,255.740 37.519,255.625 37.542 C 255.510 37.565,255.435 37.490,255.458 37.375 C 255.505 37.144,255.445 37.111,255.279 37.276 M263.938 43.201 C 263.983 43.274,264.136 43.333,264.278 43.333 C 264.455 43.333,264.501 43.425,264.425 43.625 C 264.345 43.835,264.364 43.866,264.496 43.736 C 264.754 43.480,264.532 43.018,264.165 43.046 C 263.995 43.059,263.893 43.129,263.938 43.201 M264.713 44.159 C 264.700 44.332,264.794 44.513,264.923 44.563 C 265.287 44.702,265.358 44.407,265.031 44.111 C 264.760 43.866,264.735 43.870,264.713 44.159 M265.333 45.427 C 265.333 45.565,265.446 45.720,265.583 45.773 C 265.721 45.826,265.839 46.030,265.846 46.226 C 265.854 46.423,265.899 46.486,265.946 46.368 C 265.994 46.249,265.988 45.976,265.934 45.761 C 265.821 45.311,265.333 45.040,265.333 45.427 M130.428 46.648 C 130.378 46.729,130.467 46.898,130.627 47.023 C 130.895 47.233,130.898 47.225,130.667 46.927 C 130.439 46.634,130.443 46.614,130.708 46.714 C 130.869 46.774,131.000 46.750,131.000 46.661 C 131.000 46.459,130.552 46.448,130.428 46.648 M266.075 47.820 C 266.138 47.922,266.247 47.970,266.317 47.927 C 266.387 47.883,266.444 47.950,266.444 48.075 C 266.444 48.200,266.344 48.263,266.222 48.216 C 266.100 48.169,266.000 48.207,266.000 48.301 C 266.000 48.394,266.131 48.451,266.292 48.428 C 266.683 48.370,266.666 47.771,266.272 47.695 C 266.076 47.657,266.003 47.703,266.075 47.820 M266.653 50.833 C 266.597 51.508,266.629 52.185,266.722 52.278 C 266.783 52.339,266.833 52.001,266.833 51.528 C 266.833 50.807,266.698 50.287,266.653 50.833 M266.551 53.607 C 266.442 53.652,266.393 53.796,266.444 53.927 C 266.494 54.059,266.448 54.167,266.341 54.167 C 266.234 54.167,266.193 54.242,266.250 54.333 C 266.307 54.425,266.272 54.500,266.174 54.500 C 266.075 54.500,266.011 54.720,266.032 54.988 C 266.052 55.257,266.132 55.438,266.208 55.391 C 266.284 55.344,266.301 55.162,266.246 54.986 C 266.134 54.636,266.414 54.540,266.568 54.875 C 266.621 54.990,266.619 54.905,266.564 54.687 C 266.509 54.470,266.530 54.332,266.610 54.381 C 266.689 54.431,266.764 54.253,266.775 53.986 C 266.785 53.718,266.784 53.506,266.772 53.513 C 266.760 53.520,266.660 53.563,266.551 53.607 M264.314 59.458 C 264.303 59.527,264.303 59.640,264.314 59.708 C 264.324 59.777,264.221 59.833,264.083 59.833 C 263.946 59.833,263.833 59.901,263.833 59.984 C 263.833 60.067,263.988 60.095,264.176 60.046 C 264.370 59.995,264.483 59.862,264.435 59.739 C 264.390 59.619,264.442 59.485,264.551 59.441 C 264.699 59.380,264.697 59.356,264.542 59.346 C 264.427 59.339,264.324 59.390,264.314 59.458 M257.443 64.625 C 257.286 64.878,257.632 65.268,257.833 65.067 C 257.963 64.937,257.946 64.829,257.772 64.685 C 257.639 64.574,257.490 64.547,257.443 64.625 M234.042 65.958 C 237.594 65.983,243.406 65.983,246.958 65.958 C 250.510 65.933,247.604 65.913,240.500 65.913 C 233.396 65.913,230.490 65.933,234.042 65.958 M150.667 80.138 C 150.289 80.506,150.284 80.527,150.616 80.355 C 150.817 80.250,151.031 80.085,151.091 79.988 C 151.296 79.656,151.084 79.731,150.667 80.138 M158.908 114.181 C 158.846 114.281,158.879 114.446,158.981 114.548 C 159.117 114.684,159.167 114.636,159.167 114.367 C 159.167 113.964,159.080 113.902,158.908 114.181 " stroke="none" fill="#2ab0c1" fill-rule="evenodd"></path><path id="path3" d="M56.958 36.289 C 57.348 36.324,57.985 36.324,58.375 36.289 C 58.765 36.254,58.446 36.225,57.667 36.225 C 56.887 36.225,56.569 36.254,56.958 36.289 M54.875 36.448 C 55.035 36.490,55.298 36.490,55.458 36.448 C 55.619 36.406,55.487 36.372,55.167 36.372 C 54.846 36.372,54.715 36.406,54.875 36.448 M99.333 36.516 C 111.846 36.574,122.383 36.665,122.750 36.718 C 123.117 36.771,122.854 36.711,122.167 36.584 C 121.139 36.395,116.975 36.359,98.750 36.383 L 76.583 36.411 99.333 36.516 M124.907 37.255 C 125.085 37.390,125.347 37.500,125.490 37.499 C 125.633 37.498,125.535 37.386,125.273 37.249 C 124.668 36.934,124.486 36.937,124.907 37.255 M126.567 37.917 C 126.998 38.146,127.403 38.333,127.467 38.332 C 127.688 38.331,126.249 37.510,126.017 37.505 C 125.889 37.502,126.136 37.688,126.567 37.917 M127.681 38.393 C 128.045 38.707,129.512 39.655,129.431 39.523 C 129.312 39.330,127.873 38.333,127.714 38.333 C 127.657 38.333,127.642 38.360,127.681 38.393 M47.718 39.095 L 47.250 39.524 47.792 39.147 C 48.090 38.940,48.333 38.747,48.333 38.719 C 48.333 38.587,48.149 38.700,47.718 39.095 M130.846 40.906 C 131.449 41.554,132.143 42.333,132.388 42.638 C 132.633 42.943,132.833 43.118,132.833 43.028 C 132.833 42.938,132.140 42.159,131.292 41.296 C 130.444 40.434,130.243 40.258,130.846 40.906 M45.500 40.917 C 45.095 41.329,44.801 41.667,44.847 41.667 C 44.893 41.667,45.262 41.329,45.667 40.917 C 46.072 40.504,46.365 40.167,46.319 40.167 C 46.274 40.167,45.905 40.504,45.500 40.917 M132.984 43.637 C 133.086 43.827,133.251 44.032,133.351 44.094 C 133.482 44.175,133.481 44.109,133.349 43.863 C 133.248 43.673,133.083 43.468,132.982 43.406 C 132.852 43.325,132.852 43.391,132.984 43.637 M133.502 44.417 C 133.502 44.508,133.651 44.808,133.833 45.083 C 134.265 45.735,134.265 45.503,133.834 44.796 C 133.651 44.496,133.501 44.325,133.502 44.417 M134.345 46.417 C 134.345 46.508,134.452 46.771,134.583 47.000 C 134.714 47.229,134.822 47.342,134.822 47.250 C 134.822 47.158,134.714 46.896,134.583 46.667 C 134.452 46.438,134.345 46.325,134.345 46.417 M135.083 51.398 C 135.083 53.033,135.134 53.941,135.203 53.565 C 135.355 52.748,135.352 50.321,135.199 49.333 C 135.131 48.890,135.083 49.733,135.083 51.398 M41.227 51.500 C 41.227 52.371,41.255 52.727,41.289 52.292 C 41.324 51.856,41.324 51.144,41.289 50.708 C 41.255 50.273,41.227 50.629,41.227 51.500 M134.535 56.005 C 134.424 56.183,134.336 56.424,134.340 56.539 C 134.344 56.655,134.462 56.537,134.603 56.277 C 134.896 55.737,134.841 55.516,134.535 56.005 M131.898 60.951 C 131.545 61.382,131.343 61.681,131.449 61.615 C 131.676 61.475,132.731 60.167,132.617 60.167 C 132.575 60.167,132.251 60.519,131.898 60.951 M129.833 63.034 C 129.237 63.594,129.050 63.823,129.417 63.542 C 130.053 63.054,131.143 61.991,130.990 62.008 C 130.949 62.012,130.429 62.474,129.833 63.034 M127.833 64.417 C 127.523 64.646,127.317 64.833,127.377 64.833 C 127.436 64.833,127.761 64.646,128.099 64.417 C 128.437 64.188,128.642 64.000,128.556 64.000 C 128.469 64.000,128.144 64.188,127.833 64.417 M126.417 65.167 C 125.765 65.598,125.997 65.599,126.704 65.167 C 127.004 64.984,127.175 64.835,127.083 64.835 C 126.992 64.835,126.692 64.985,126.417 65.167 M124.333 65.917 C 123.789 66.228,123.979 66.231,124.689 65.923 C 124.998 65.789,125.138 65.679,125.000 65.679 C 124.862 65.679,124.563 65.786,124.333 65.917 M119.292 66.457 C 119.865 66.489,120.802 66.489,121.375 66.457 C 121.948 66.424,121.479 66.398,120.333 66.398 C 119.188 66.398,118.719 66.424,119.292 66.457 M67.638 66.625 C 74.452 66.649,85.552 66.649,92.305 66.625 C 99.058 66.601,93.483 66.581,79.917 66.581 C 66.350 66.581,60.825 66.601,67.638 66.625 " stroke="none" fill="#34a8b4" fill-rule="evenodd"></path><path id="path4" d="M53.917 36.230 C 53.642 36.350,53.016 36.500,52.527 36.565 C 52.037 36.629,51.363 36.829,51.029 37.008 C 50.695 37.187,50.294 37.333,50.137 37.333 C 49.981 37.333,49.803 37.415,49.741 37.514 C 49.680 37.613,49.301 37.835,48.898 38.008 C 48.496 38.180,48.167 38.399,48.167 38.494 C 48.167 38.589,48.061 38.667,47.932 38.667 C 47.368 38.667,43.833 42.084,43.833 42.629 C 43.833 42.713,43.683 42.917,43.500 43.083 C 43.317 43.249,43.167 43.476,43.167 43.587 C 43.167 43.698,43.021 43.973,42.844 44.199 C 42.666 44.425,42.468 44.829,42.405 45.096 C 42.341 45.364,42.184 45.704,42.056 45.852 C 41.928 46.000,41.753 46.551,41.668 47.078 C 41.582 47.604,41.415 48.151,41.298 48.293 C 41.141 48.482,41.083 49.343,41.083 51.500 C 41.083 53.657,41.141 54.518,41.298 54.707 C 41.415 54.849,41.582 55.396,41.668 55.922 C 41.753 56.449,41.930 57.000,42.060 57.148 C 42.190 57.296,42.349 57.665,42.414 57.970 C 42.479 58.274,42.632 58.561,42.756 58.609 C 42.879 58.656,43.026 58.905,43.083 59.163 C 43.139 59.421,43.331 59.764,43.509 59.925 C 43.688 60.086,43.833 60.317,43.833 60.437 C 43.833 60.557,43.983 60.735,44.167 60.833 C 44.350 60.931,44.500 61.106,44.500 61.220 C 44.500 61.787,48.688 65.167,49.389 65.167 C 49.548 65.167,49.720 65.277,49.771 65.412 C 49.823 65.547,50.140 65.706,50.474 65.766 C 50.809 65.825,51.308 66.006,51.583 66.168 C 51.858 66.330,52.605 66.516,53.242 66.581 C 53.879 66.647,54.591 66.776,54.825 66.868 C 55.567 67.161,120.391 67.037,121.945 66.739 C 122.633 66.608,123.472 66.500,123.809 66.500 C 124.146 66.500,124.701 66.350,125.044 66.167 C 125.386 65.983,125.759 65.833,125.874 65.833 C 126.107 65.832,127.599 65.096,128.500 64.539 C 130.400 63.362,133.833 59.631,133.833 58.742 C 133.833 58.631,133.941 58.451,134.073 58.342 C 134.204 58.233,134.363 57.911,134.425 57.627 C 134.488 57.343,134.680 56.880,134.852 56.597 C 135.024 56.315,135.166 55.842,135.166 55.547 C 135.166 55.253,135.294 54.653,135.450 54.214 C 135.850 53.088,135.853 49.886,135.455 48.786 C 135.296 48.347,135.166 47.747,135.166 47.453 C 135.166 47.158,135.024 46.685,134.852 46.403 C 134.680 46.120,134.488 45.657,134.425 45.373 C 134.363 45.089,134.204 44.767,134.073 44.658 C 133.941 44.549,133.833 44.369,133.833 44.258 C 133.833 43.512,129.711 38.833,129.054 38.833 C 128.961 38.833,128.755 38.690,128.597 38.515 C 128.438 38.340,128.114 38.148,127.876 38.088 C 127.638 38.028,127.258 37.834,127.032 37.656 C 126.806 37.479,126.499 37.333,126.348 37.333 C 126.197 37.333,125.908 37.217,125.704 37.074 C 125.501 36.932,124.865 36.740,124.292 36.648 C 123.719 36.557,122.929 36.374,122.536 36.241 C 121.522 35.899,54.704 35.888,53.917 36.230 M122.750 36.657 C 123.850 36.829,124.975 37.089,125.250 37.234 C 125.525 37.379,125.836 37.498,125.941 37.499 C 126.166 37.500,127.595 38.240,128.667 38.909 C 129.532 39.449,132.495 42.371,132.847 43.030 C 132.977 43.274,133.330 43.911,133.632 44.446 C 133.934 44.980,134.225 45.604,134.280 45.833 C 134.335 46.063,134.489 46.466,134.622 46.730 C 135.501 48.473,135.495 54.555,134.613 56.281 C 134.481 56.539,134.322 56.989,134.259 57.280 C 134.197 57.572,134.038 57.900,133.906 58.009 C 133.774 58.118,133.667 58.300,133.667 58.412 C 133.667 59.282,130.020 63.360,128.493 64.197 C 126.742 65.157,126.165 65.429,124.917 65.883 L 123.583 66.368 110.167 66.520 C 92.637 66.719,54.190 66.618,53.167 66.371 C 49.286 65.433,45.984 63.150,43.812 59.904 C 43.062 58.784,41.833 56.225,41.833 55.784 C 41.833 55.639,41.684 54.898,41.501 54.136 C 41.079 52.375,41.079 50.625,41.501 48.864 C 41.684 48.102,41.833 47.361,41.833 47.216 C 41.833 46.592,43.332 43.731,44.461 42.200 C 45.719 40.495,49.500 37.541,50.467 37.507 C 50.587 37.503,51.000 37.357,51.384 37.181 C 52.029 36.888,54.453 36.405,55.833 36.296 C 59.025 36.044,120.963 36.378,122.750 36.657 " stroke="none" fill="#439ba3" fill-rule="evenodd"></path></g></svg>